<svg xmlns="http://www.w3.org/2000/svg" viewBox="0 0 1200 760" width="1200" height="760" role="img">
  <defs>
    <linearGradient id="w100" x1="0" y1="0" x2="0" y2="1"><stop offset="0" stop-color="#f7f1e8"/><stop offset="1" stop-color="#e6dbcb"/></linearGradient>
    <linearGradient id="f100" x1="0" y1="0" x2="0" y2="1"><stop offset="0" stop-color="#5d636c"/><stop offset="0.55" stop-color="#4a4f57"/><stop offset="1" stop-color="#383c43"/></linearGradient>
    <linearGradient id="c100" x1="0" y1="0" x2="0.3" y2="1"><stop offset="0" stop-color="#5d636c"/><stop offset="1" stop-color="#4a4f57"/></linearGradient>
    <radialGradient id="sh100" cx="0.5" cy="0.5" r="0.5"><stop offset="0" stop-color="#3a2a1c" stop-opacity="0.26"/><stop offset="1" stop-color="#3a2a1c" stop-opacity="0"/></radialGradient>
  </defs>
  <rect width="1200" height="760" fill="url(#w100)"/>
  <rect y="547.1999999999999" width="1200" height="212.8" fill="#d9caB4" opacity="0.5"/>
  <rect x="70" y="70" width="300" height="210" rx="8" fill="#fff" opacity="0.55" stroke="#cbbca6" stroke-width="3"/>
  <rect x="86" y="86" width="268" height="178" rx="4" fill="#e8f0f2" opacity="0.8"/>
  <circle cx="980" cy="150" r="58" fill="#fff" opacity="0.6"/>
  <rect x="880" y="300" width="16" height="250" fill="#c9b79c" opacity="0.6"/>
  <ellipse cx="888" cy="290" rx="62" ry="42" fill="#6f8765" opacity="0.55"/><ellipse cx="560" cy="620" rx="380" ry="52" fill="url(#sh100)"/><rect x="293" y="280" width="554" height="150" rx="30" fill="url(#f100)"/><rect x="339" y="296" width="145.33333333333334" height="120" rx="20" fill="url(#c100)" stroke="#383c43" stroke-width="2"/><rect x="496.33333333333337" y="296" width="145.33333333333334" height="120" rx="20" fill="url(#c100)" stroke="#383c43" stroke-width="2"/><rect x="653.6666666666667" y="296" width="145.33333333333334" height="120" rx="20" fill="url(#c100)" stroke="#383c43" stroke-width="2"/><rect x="260" y="430" width="620" height="100" rx="22" fill="#383c43"/><rect x="338" y="400" width="147.33333333333334" height="60" rx="18" fill="url(#c100)" stroke="#383c43" stroke-width="2"/><rect x="495.33333333333337" y="400" width="147.33333333333334" height="60" rx="18" fill="url(#c100)" stroke="#383c43" stroke-width="2"/><rect x="652.6666666666667" y="400" width="147.33333333333334" height="60" rx="18" fill="url(#c100)" stroke="#383c43" stroke-width="2"/><rect x="260" y="326" width="66" height="204" rx="30" fill="url(#f100)"/><rect x="814" y="326" width="66" height="204" rx="30" fill="url(#f100)"/><path d="M290 528 l28 0 l-5.04 46 l-17.92 0 z" fill="#7a5c3e"/>
   <path d="M304 528 l14 0 l-5.04 46 l-8.96 0 z" fill="#5e452d"/><path d="M822 528 l28 0 l-5.04 46 l-17.92 0 z" fill="#7a5c3e"/>
   <path d="M836 528 l14 0 l-5.04 46 l-8.96 0 z" fill="#5e452d"/><rect x="350" y="354" width="76" height="76" rx="14" fill="#e8dcc8" stroke="#cdbda3" stroke-width="2" transform="rotate(-8 388 392)"/><rect x="710" y="356" width="72" height="72" rx="14" fill="#c4a68a" stroke="#a98c72" stroke-width="2" transform="rotate(7 746 392)"/><ellipse cx="560" cy="646" rx="330" ry="42" fill="#cbb79a" opacity="0.45"/></svg>