<svg xmlns="http://www.w3.org/2000/svg" viewBox="0 0 800 600" width="800" height="600" role="img">
  <defs>
    <linearGradient id="bg16" x1="0" y1="0" x2="0" y2="1">
      <stop offset="0" stop-color="#faf6f0"/><stop offset="1" stop-color="#ece2d5"/>
    </linearGradient>
    <linearGradient id="f16" x1="0" y1="0" x2="0" y2="1">
      <stop offset="0" stop-color="#528b86"/><stop offset="0.55" stop-color="#3f6f6b"/><stop offset="1" stop-color="#2f5451"/>
    </linearGradient>
    <linearGradient id="c16" x1="0" y1="0" x2="0.3" y2="1">
      <stop offset="0" stop-color="#528b86"/><stop offset="1" stop-color="#3f6f6b"/>
    </linearGradient>
    <radialGradient id="sh16" cx="0.5" cy="0.5" r="0.5">
      <stop offset="0" stop-color="#3a2a1c" stop-opacity="0.28"/><stop offset="1" stop-color="#3a2a1c" stop-opacity="0"/>
    </radialGradient>
  </defs>
  <rect width="800" height="600" fill="url(#bg16)"/>
  <circle cx="400" cy="276" r="264" fill="#fff" opacity="0.5"/><ellipse cx="400" cy="468" rx="150" ry="38" fill="url(#sh16)"/><rect x="316" y="196" width="168" height="140" rx="28" fill="url(#f16)"/><rect x="332" y="212" width="136" height="112" rx="20" fill="url(#c16)" stroke="#2f5451" stroke-width="2"/><path d="M348 232 q52 18 104 0" stroke="#2f5451" stroke-width="2" fill="none" opacity="0.5"/><rect x="300" y="332" width="200" height="80" rx="20" fill="#2f5451"/><rect x="314" y="312" width="172" height="46" rx="16" fill="url(#c16)" stroke="#2f5451" stroke-width="2"/><rect x="280" y="242" width="58" height="170" rx="26" fill="url(#f16)"/><rect x="462" y="242" width="58" height="170" rx="26" fill="url(#f16)"/><ellipse cx="309" cy="254" rx="26" ry="12" fill="#528b86" opacity="0.7"/><ellipse cx="491" cy="254" rx="26" ry="12" fill="#528b86" opacity="0.7"/><path d="M296 410 l24 0 l-4.32 40 l-15.36 0 z" fill="#7a5c3e"/>
   <path d="M308 410 l12 0 l-4.32 40 l-7.68 0 z" fill="#5e452d"/><path d="M456 410 l24 0 l-4.32 40 l-15.36 0 z" fill="#7a5c3e"/>
   <path d="M468 410 l12 0 l-4.32 40 l-7.68 0 z" fill="#5e452d"/></svg>