<svg xmlns="http://www.w3.org/2000/svg" viewBox="0 0 800 600" width="800" height="600" role="img">
  <defs>
    <linearGradient id="bg28" x1="0" y1="0" x2="0" y2="1">
      <stop offset="0" stop-color="#faf6f0"/><stop offset="1" stop-color="#ece2d5"/>
    </linearGradient>
    <linearGradient id="f28" x1="0" y1="0" x2="0" y2="1">
      <stop offset="0" stop-color="#5d636c"/><stop offset="0.55" stop-color="#4a4f57"/><stop offset="1" stop-color="#383c43"/>
    </linearGradient>
    <linearGradient id="c28" x1="0" y1="0" x2="0.3" y2="1">
      <stop offset="0" stop-color="#5d636c"/><stop offset="1" stop-color="#4a4f57"/>
    </linearGradient>
    <radialGradient id="sh28" cx="0.5" cy="0.5" r="0.5">
      <stop offset="0" stop-color="#3a2a1c" stop-opacity="0.28"/><stop offset="1" stop-color="#3a2a1c" stop-opacity="0"/>
    </radialGradient>
  </defs>
  <rect width="800" height="600" fill="url(#bg28)"/>
  <circle cx="400" cy="276" r="264" fill="#fff" opacity="0.5"/><ellipse cx="400" cy="480" rx="300" ry="48" fill="url(#sh28)"/><rect x="120" y="330" width="230" height="96" rx="20" fill="#383c43"/><rect x="126" y="306" width="218" height="46" rx="14" fill="url(#c28)" stroke="#383c43" stroke-width="2"/><rect x="112" y="250" width="56" height="176" rx="26" fill="url(#f28)"/><rect x="350" y="196" width="330" height="132" rx="26" fill="url(#f28)"/><rect x="366" y="210" width="138" height="106" rx="18" fill="url(#c28)" stroke="#383c43" stroke-width="2"/><path d="M382 228 q 53 18 106 0" stroke="#383c43" stroke-width="2" fill="none" opacity="0.5"/><rect x="516" y="210" width="138" height="106" rx="18" fill="url(#c28)" stroke="#383c43" stroke-width="2"/><path d="M532 228 q 53 18 106 0" stroke="#383c43" stroke-width="2" fill="none" opacity="0.5"/><rect x="350" y="330" width="330" height="96" rx="20" fill="#383c43"/><rect x="358" y="306" width="150" height="48" rx="16" fill="url(#c28)" stroke="#383c43" stroke-width="2"/><rect x="516" y="306" width="150" height="48" rx="16" fill="url(#c28)" stroke="#383c43" stroke-width="2"/><rect x="112" y="196" width="250" height="132" rx="26" fill="url(#f28)" opacity="0.35"/><rect x="628" y="240" width="58" height="186" rx="28" fill="url(#f28)"/><ellipse cx="657" cy="252" rx="26" ry="12" fill="#5d636c" opacity="0.7"/><ellipse cx="140" cy="262" rx="26" ry="12" fill="#5d636c" opacity="0.7"/><path d="M138 424 l24 0 l-4.32 40 l-15.36 0 z" fill="#7a5c3e"/>
   <path d="M150 424 l12 0 l-4.32 40 l-7.68 0 z" fill="#5e452d"/><path d="M636 424 l24 0 l-4.32 40 l-15.36 0 z" fill="#7a5c3e"/>
   <path d="M648 424 l12 0 l-4.32 40 l-7.68 0 z" fill="#5e452d"/><path d="M380 424 l24 0 l-4.32 40 l-15.36 0 z" fill="#7a5c3e"/>
   <path d="M392 424 l12 0 l-4.32 40 l-7.68 0 z" fill="#5e452d"/></svg>